<svg width="36" height="37" viewBox="0 0 36 37" fill="none" xmlns="http://www.w3.org/2000/svg">
<path d="M20.541 0.160887C17.035 -0.313422 13.4696 0.266376 10.2826 1.82903C7.09565 3.39177 4.42543 5.86936 2.60177 8.95736C0.777336 12.0454 -0.122531 15.6092 0.013413 19.2112C0.149357 22.813 1.31493 26.2959 3.36645 29.232C5.41796 32.168 8.26663 34.4293 11.5625 35.7378C14.8576 37.0464 18.4562 37.3453 21.9159 36.5978C25.3755 35.8504 28.5462 34.0891 31.0372 31.5303C33.5283 28.9717 35.2314 25.727 35.9374 22.1951L30.6024 21.0866C30.1073 23.5589 28.9154 25.8301 27.1713 27.6213C25.428 29.4124 23.2089 30.6453 20.7866 31.1685C18.3651 31.6917 15.8455 31.4825 13.5391 30.5665C11.2327 29.6505 9.23831 28.0676 7.8024 26.0124C6.36572 23.9572 5.55005 21.5191 5.45505 18.9978C5.36004 16.4765 5.98956 13.9818 7.26635 11.8201C8.54391 9.65855 10.4124 7.92427 12.6431 6.83033C14.8738 5.73647 17.3702 5.33057 19.8242 5.66263L20.541 0.160887Z" fill="#F37D73"/>
<path d="M36.0007 16.6118C35.6871 13.3543 34.5316 10.24 32.6515 7.58652C30.7715 4.93299 28.2341 2.8354 25.2982 1.50781L23.0898 6.58075C25.1445 7.51008 26.9202 8.97835 28.2364 10.8358C29.5526 12.6932 30.3621 14.8733 30.5814 17.1535L36.0007 16.6118Z" fill="#F37D73"/>
<path d="M22.338 17.8242C21.781 15.7257 19.6603 14.4848 17.6014 15.0526C15.5425 15.6203 14.325 17.7817 14.882 19.8801C15.4391 21.9786 17.5597 23.2194 19.6186 22.6517C21.6776 22.084 22.8951 19.9226 22.338 17.8242Z" fill="#F37D73"/>
</svg>
